<svg width="55" height="55" viewBox="0 0 55 55" fill="none" xmlns="http://www.w3.org/2000/svg">
<path fill-rule="evenodd" clip-rule="evenodd" d="M53 14C53.3848 12.7858 52.7023 12 51 12H45C43.5722 12 43.3848 13.1733 43 14C43 14 40.0661 20.4221 36 25C34.6814 26.324 33.7144 27 33 27C32.6152 27 32 26.2131 32 25V14C32 12.5663 32.2094 12 31 12H22C21.1202 12 20 12.338 20 13C20 14.3789 22.7806 15.139 23 19V27C23 28.8202 22.7198 29 22 29C20.0772 29 14.8015 22.1084 12 14C11.4553 12.394 11.4289 12 10 12H4C2.35174 12 2 13.1723 2 14C2 15.4897 3.96707 23.0714 11 33C15.6702 39.7812 22.0112 43 28 43C31.6272 43 32 42.3789 32 41V36C32 34.3456 32.8457 34 34 34C34.8236 34 36.6484 33.745 40 37C43.8456 40.861 43.8567 43 46 43H52C53.6483 43 54.4399 42.5995 54 41C53.5061 39.4005 51.4178 36.7577 49 34C47.6814 32.4565 45.6042 30.8277 45 30C44.1764 28.8967 44.3958 27.9924 45 27C44.9449 27 52.2867 17.3131 53 14" fill="#DF3C66"/>
</svg>
