<svg width="50" height="51" viewBox="0 0 50 51" fill="none" xmlns="http://www.w3.org/2000/svg">
<path d="M34 7.5C36.4291 7.50725 39.2824 7.78236 41 9.5C42.7176 11.2176 42.9927 14.0709 43 16.5V34.5C42.9927 36.9291 42.7176 39.7824 41 41.5C39.2824 43.2176 36.4291 43.4927 34 43.5H16C13.5709 43.4927 10.7176 43.2176 9 41.5C7.28236 39.7824 7.00725 36.9291 7 34.5V16.5C7.00725 14.0709 7.28236 11.2176 9 9.5C10.7176 7.78236 13.5709 7.50725 16 7.5H34M34 3.5H16C8.94134 3.5 3 9.44134 3 16.5V34.5C3 41.5587 8.94134 47.5 16 47.5H34C41.0587 47.5 47 41.5587 47 34.5V16.5C47 9.44134 41.0587 3.5 34 3.5V3.5Z" fill="#DF3C66"/>
<path d="M36.999 16.5C36.4539 16.5 36.4523 15.803 35.999 15.5C35.5458 15.197 35.2076 15.0039 34.999 14.5C34.7904 13.9962 33.8927 13.0349 33.999 12.5C34.1054 11.9651 34.6136 11.8857 34.999 11.5C35.3845 11.1144 36.4644 10.6064 36.999 10.5C37.5336 10.3936 37.4954 10.2913 37.999 10.5C38.5026 10.7087 39.6962 11.0466 39.999 11.5C40.3019 11.9535 39.999 12.9547 39.999 13.5C39.9998 13.8624 40.1373 14.1651 39.999 14.5C39.8608 14.8349 39.2551 15.2438 38.999 15.5C38.743 15.7562 38.3338 15.3617 37.999 15.5C37.6643 15.6383 37.3612 16.5008 36.999 16.5V16.5ZM24.999 17.5C26.4527 17.5 27.7904 18.692 28.999 19.5C30.2077 20.308 31.4428 21.1564 31.999 22.5C32.5553 23.8437 32.2826 25.0736 31.999 26.5C31.7154 27.9265 31.0269 29.4716 29.999 30.5C28.9712 31.5284 28.4247 32.2163 26.999 32.5C25.5733 32.7838 23.342 33.0566 21.999 32.5C20.6561 31.9435 19.8066 30.7093 18.999 29.5C18.1914 28.2908 17.999 26.9544 17.999 25.5C18.0011 23.5504 18.6212 21.8786 19.999 20.5C21.3769 19.1214 23.0504 17.5021 24.999 17.5M24.999 14.5C22.8187 14.5 20.8119 15.2881 18.999 16.5C17.1861 17.712 15.8334 19.4846 14.999 21.5C14.1647 23.5155 13.5737 25.3605 13.999 27.5C14.4244 29.6396 15.4573 31.9575 16.999 33.5C18.5408 35.0426 20.8606 36.0745 22.999 36.5C25.1375 36.9256 26.9847 36.3349 28.999 35.5C31.0134 34.6652 32.7877 33.3139 33.999 31.5C35.2104 29.6862 35.999 27.6815 35.999 25.5C35.999 22.5748 35.0664 19.5685 32.999 17.5C30.9316 15.4316 27.9228 14.5 24.999 14.5V14.5Z" fill="#DF3C66"/>
</svg>
