<svg width="50" height="51" viewBox="0 0 50 51" fill="none" xmlns="http://www.w3.org/2000/svg">
<path fill-rule="evenodd" clip-rule="evenodd" d="M41 9.50006C38.9661 7.46513 35.6597 6.59737 33 5.50006C30.3404 4.40276 27.8771 3.49131 25 3.50006C12.9256 3.50006 3.00493 13.4767 3.00002 25.5001C2.99468 29.3286 4.07904 33.1884 6.00002 36.5001L3.00002 47.5001L15 44.5001C18.2148 46.2416 21.3438 47.5013 25 47.5001V47.5001C37.0735 47.5001 46.9941 37.5224 47 25.5001C47.0073 22.6328 46.1005 19.1478 45 16.5001C43.8995 13.8524 43.0376 11.5174 41 9.50006V9.50006ZM25 43.5001V43.5001C21.7407 43.501 18.8081 42.1548 16 40.5001H15L8.00002 42.5001L10 35.5001V34.5001C8.17754 31.6147 6.99633 28.9128 7.00002 25.5001C7.00002 15.5087 14.9557 7.50006 25 7.50006C29.8184 7.49146 34.5866 9.09932 38 12.5001C41.4135 15.9008 42.9907 20.6817 43 25.5001C42.9961 35.4924 35.0365 43.5001 25 43.5001V43.5001ZM35 29.5001C34.453 29.227 31.4989 28.6818 31 28.5001C30.5011 28.3184 30.3644 27.954 30 28.5001C29.6356 29.0461 28.3192 30.1318 28 30.5001C27.6808 30.8684 27.5471 30.7731 27 30.5001C26.453 30.227 25.091 29.3563 23 27.5001C21.3726 26.0553 20.3192 25.0452 20 24.5001C19.6808 23.955 19.726 23.7711 20 23.5001C20.2465 23.2555 20.726 22.8183 21 22.5001C21.274 22.1818 20.8183 21.8635 21 21.5001C21.1817 21.1367 21.1365 20.7721 21 20.5001C20.8635 20.228 20.4557 17.5912 20 16.5001C19.5551 15.4374 18.3359 15.5168 18 15.5001C17.6808 15.4843 17.3624 15.5001 17 15.5001C16.723 15.5073 17.2511 15.3828 17 15.5001C16.7489 15.6173 16.1834 15.2922 16 15.5001C15.4981 16.0461 14 17.8208 14 20.5001C14 23.1793 15.7289 26.1367 16 26.5001C16.2711 26.8635 20.5089 32.14 26 34.5001C27.0197 34.9367 27.9403 35.1725 29 35.5001C30.3112 35.9145 31.0572 35.6405 32 35.5001C33.0519 35.3439 35.5453 34.7729 36 33.5001C36.4548 32.2272 36.1365 30.7269 36 30.5001C35.8635 30.2732 35.5481 29.7721 35 29.5001V29.5001Z" fill="#DF3C66"/>
</svg>
